<?xml version="1.0" standalone="no"?>
<!DOCTYPE svg PUBLIC "-//W3C//DTD SVG 20010904//EN"
 "http://www.w3.org/TR/2001/REC-SVG-20010904/DTD/svg10.dtd">
<svg version="1.0" xmlns="http://www.w3.org/2000/svg"
 width="512.000000pt" height="512.000000pt" viewBox="0 0 512.000000 512.000000"
 preserveAspectRatio="xMidYMid meet">
<metadata>
Created by potrace 1.11, written by Peter Selinger 2001-2013
</metadata>
<g transform="translate(0.000000,512.000000) scale(0.100000,-0.100000)"
fill="#000000" stroke="none">
<path d="M1460 4690 c-71 -13 -129 -59 -161 -127 -13 -28 -17 -68 -18 -162 -1
-69 -4 -127 -6 -129 -2 -3 -73 -6 -157 -7 -245 -5 -362 -49 -504 -190 -92 -92
-159 -222 -180 -350 -4 -22 -7 -636 -8 -1364 -1 -1001 2 -1342 11 -1396 44
-260 224 -453 485 -522 57 -14 210 -16 1598 -17 844 -1 1568 3 1609 7 202 23
397 156 488 331 43 85 55 124 70 226 10 66 9 2665 -1 2731 -23 166 -130 336
-269 431 -125 85 -211 109 -415 113 -84 2 -155 5 -157 7 -2 2 -5 57 -6 122 -2
140 -10 175 -51 222 -101 115 -280 95 -350 -39 -18 -35 -22 -61 -24 -162 -1
-66 -3 -127 -3 -135 -1 -13 -101 -15 -843 -13 -464 0 -848 1 -853 2 -7 1 -10
47 -9 126 1 134 -11 182 -59 233 -43 46 -124 73 -187 62z"/>
</g>
</svg>
